<svg xmlns="http://www.w3.org/2000/svg" xmlns:xlink="http://www.w3.org/1999/xlink" viewBox="0 0 423.59 329.34"><defs><style>.cls-1,.cls-2{fill:none;}.cls-12,.cls-13,.cls-14,.cls-2{stroke:#6bc7dd;stroke-miterlimit:10;}.cls-3,.cls-5{isolation:isolate;}.cls-4{fill:url(#linear-gradient);}.cls-5{mix-blend-mode:luminosity;}.cls-6{clip-path:url(#clip-path);}.cls-7{fill:#266ba6;}.cls-12,.cls-8{fill:#fff;}.cls-9{fill:#2c71ae;}.cls-10{fill:url(#linear-gradient-2);}.cls-11{clip-path:url(#clip-path-2);}.cls-13{fill:#4c4c4c;}.cls-14{fill:#f60;}.cls-15{fill:url(#linear-gradient-3);}.cls-16{clip-path:url(#clip-path-3);}.cls-17{fill:#0e86cb;}</style><linearGradient id="linear-gradient" x1="35.61" y1="166.19" x2="229.37" y2="166.19" gradientUnits="userSpaceOnUse"><stop offset="0.01" stop-color="#af4b9b"/><stop offset="0.25" stop-color="#964799"/><stop offset="0.75" stop-color="#573c95"/><stop offset="1" stop-color="#363793"/></linearGradient><clipPath id="clip-path" transform="translate(-517.74 -312.08)"><polygon class="cls-1" points="747.11 524.97 624.01 641.42 553.36 431.57 676.46 315.13 747.11 524.97"/></clipPath><linearGradient id="linear-gradient-2" x1="158.71" y1="106.7" x2="422.9" y2="106.7" gradientUnits="userSpaceOnUse"><stop offset="0" stop-color="#363793"/><stop offset="0.14" stop-color="#3d3893"/><stop offset="0.36" stop-color="#523c95"/><stop offset="0.62" stop-color="#744197"/><stop offset="0.91" stop-color="#a2499a"/><stop offset="0.99" stop-color="#af4b9b"/></linearGradient><clipPath id="clip-path-2" transform="translate(-517.74 -312.08)"><polygon class="cls-2" points="940.64 522.43 747.11 524.97 676.46 315.13 869.99 312.58 940.64 522.43"/></clipPath><linearGradient id="linear-gradient-3" x1="106.27" y1="269.85" x2="422.9" y2="269.85" gradientUnits="userSpaceOnUse"><stop offset="0" stop-color="#363793"/><stop offset="0.15" stop-color="#3c3893"/><stop offset="0.35" stop-color="#4d3b95"/><stop offset="0.57" stop-color="#6a4096"/><stop offset="0.82" stop-color="#914699"/><stop offset="0.99" stop-color="#af4b9b"/></linearGradient><clipPath id="clip-path-3" transform="translate(-517.74 -312.08)"><polygon class="cls-1" points="817.54 638.87 624.01 641.42 747.11 524.97 940.64 522.43 817.54 638.87"/></clipPath></defs><title>zar-sol</title><g class="cls-3"><g id="Layer_1" data-name="Layer 1"><polygon class="cls-4" points="229.37 212.89 106.27 329.34 35.61 119.5 158.71 3.05 229.37 212.89"/><g class="cls-5"><g class="cls-6"><path class="cls-7" d="M623.28,398.2c-25.94,24.54-34.91,80.28-20,124.5s48,60.18,73.94,35.64,34.9-80.28,20-124.51-48-60.17-73.93-35.64m56.4,167.5c-28.33,26.8-64.48,9.38-80.74-38.91s-6.47-109.16,21.86-136,64.47-9.37,80.73,38.92,6.47,109.16-21.85,136" transform="translate(-517.74 -312.08)"/><path class="cls-8" d="M646.06,492.18c2.08-2,4-3.23,5.42-3.06,1.78.22,3.37,2.33,4.73,5.16A43.65,43.65,0,0,0,658,513.35c4.38,13,14.11,17.69,21.74,10.47s10.26-23.6,5.89-36.6-14.11-17.69-21.74-10.48a18.91,18.91,0,0,0-2.7,3.23,10.65,10.65,0,0,1-5.05-6.07c-1.55-4.06-1.21-9.17-.18-14a14.41,14.41,0,0,0,2.16-1.7c7.63-7.22,10.26-23.6,5.88-36.61s-14.11-17.69-21.74-10.47-10.26,23.6-5.88,36.6c1.71,5.09,4.25,8.91,7.16,11.23,1.25,5.07,1.93,10,1.13,13.39a9,9,0,0,1-2.72,4.38,17.59,17.59,0,0,1-2.71,2.07c-5-8.2-12.68-10.34-19-4.39C612.61,481.58,610,498,614.35,511s14.11,17.69,21.74,10.48c5.84-5.52,8.75-16.43,7.83-27.08.72-.79,1.44-1.54,2.14-2.2m31.14,66.17c-25.94,24.54-59,8.58-73.94-35.64s-5.93-100,20-124.5,59-8.59,73.93,35.64,5.93,100-20,124.51" transform="translate(-517.74 -312.08)"/><path class="cls-9" d="M679.7,523.82c-7.63,7.22-17.36,2.53-21.74-10.47a43.65,43.65,0,0,1-1.76-19.08c-1.35-2.83-2.95-4.94-4.73-5.16-1.41-.17-3.34,1.1-5.42,3.06-.7.66-1.42,1.41-2.14,2.2.92,10.65-2,21.55-7.83,27.08-7.63,7.21-17.36,2.52-21.74-10.48s-1.74-29.4,5.88-36.61c6.28-5.94,14-3.81,19,4.39a17.59,17.59,0,0,0,2.71-2.07,9,9,0,0,0,2.72-4.38c.8-3.37.12-8.32-1.13-13.39-2.91-2.32-5.44-6.14-7.16-11.23-4.38-13-1.74-29.38,5.88-36.6s17.36-2.53,21.74,10.47,1.75,29.39-5.88,36.61a14.41,14.41,0,0,1-2.16,1.7c-1,4.85-1.37,10,.18,14a10.65,10.65,0,0,0,5.05,6.07,18.91,18.91,0,0,1,2.7-3.23c7.63-7.21,17.36-2.53,21.74,10.48s1.74,29.39-5.89,36.6" transform="translate(-517.74 -312.08)"/></g></g><polygon class="cls-10" points="422.9 210.35 229.37 212.89 158.71 3.05 352.24 0.51 422.9 210.35"/><g class="cls-5"><g class="cls-11"><path class="cls-12" d="M838.84,506.2h0m1.1,0-.55,0h0l.55,0m-1.65,0h0m2.2-.07-.43,0,.43,0m-2.75.08h0m3.3-.11-.41,0,.41,0m-3.84.11h0m4.4-.14-.41,0,.41,0m-4.94.14h0m5.49-.18-.43,0,.43,0m-6,.18h0m6.56-.22-.45,0,.45,0m-7,.21h0m7.56-.26-.47,0,.47,0m-9.64.2h0m-.52,0h0m12.41-.41q-1.08.13-2.18.23,1.1-.1,2.18-.23m-12.94.38h0m13.48-.44-.49.06.49-.06m.51-.07-.44.06.44-.06m.53-.07-.39.06.39-.06m.51-.08-.38.06.38-.06m.55-.09-.4.06.4-.06m.54-.09-.43.07.43-.07m1.13-.2-1,.19,1-.19m.5-.1-.48.09.48-.09m.5-.1-.38.08.38-.08m.49-.1-.32.07.32-.07m.51-.11-.32.07.32-.07m.52-.12-.34.08.34-.08m.49-.12-.35.08.35-.08m.51-.13-.35.09.35-.09m.55-.14-.42.11.42-.11m1-.28-1,.26,1-.26m.49-.14-.38.11.38-.11m.49-.14-.4.12.4-.12m.51-.15-.42.13.42-.13m.5-.16-.46.14.46-.14m-37,1.13.12,0-.12,0m-.57-.12.17,0-.17,0m-.58-.13.22,0-.22,0m-.62-.14.29.07-.29-.07m-.73-.17.48.11-.48-.11m-37.64-17a114.92,114.92,0,0,0,37.56,17,103.16,103.16,0,0,1-16-5.28c-.65-.27-1.3-.55-2-.84a122.94,122.94,0,0,1-18-9.84l-1.62-1.08m-6.15-4.44.14.11-.14-.11m-.89-.69.5.39-.5-.39m-.7-.55.46.36-.46-.36m-.83-.66.67.53-.67-.53M730,425.62l.14.35-.14-.35m160-5.15.11.37-.11-.37m-160.23,4.68.12.31-.12-.31M889.92,420l.11.36-.11-.36m-160.28,4.67.11.29-.11-.29m160.12-5.15.11.36-.11-.36M729.42,424l.14.37-.14-.37m160.15-5.19.15.46-.15-.46m-160.37,4.6.08.21-.08-.21m160.19-5.15.07.21-.07-.21M729,422.93l.07.19-.07-.19m160.21-5.15.07.21-.07-.21m-160.4,4.63.07.2-.07-.2M889,417.25l.07.2-.07-.2m-.18-.52.06.18-.06-.18m-160.23,5.15.06.17-.06-.17m-.4-1.14.22.63-.22-.63m160.23-5.15.22.63-.22-.63m-.23-.63.16.43-.16-.43M728,420.09l.15.43-.15-.43m160-5.78.15.4-.15-.4m-160.21,5.13.14.42-.14-.42m160-5.8.16.44-.16-.44m-160.18,5.11.16.48-.16-.48m159.88-5.88.23.59-.23-.59m-.26-.67.25.64-.25-.64m-160.09,5.1.41,1.3-.41-1.3m159.84-5.72.2.49-.2-.49m-160,5.06.19.64-.19-.64M886.67,411l.18.45-.18-.45m-160,5,.19.62-.19-.62M886.4,410.3l.19.47-.19-.47m-.32-.76.25.61-.25-.61m-.28-.66.28.65-.28-.65m-.27-.62.26.59-.26-.59m-.27-.62.22.49-.22-.49M885,407l.22.49L885,407m-.93-2q.45.95.88,1.9-.43-1-.88-1.9m-.31-.64.28.59-.28-.59m-.32-.66.3.61-.3-.61M528.09,351.91l26.12,74-23.37.75a126.62,126.62,0,0,1-12.64-23.64c8.53,21.22,23.32,40.21,41,54.37a140.61,140.61,0,0,1-14.6-13.53l33.21-1.07-16.42-46.54,32.17,24.59,4.77,3.65L610,433.46l5.18-9.47,2.13-3.87,13.69-25L647,440.6l33.87-1.09a57.27,57.27,0,0,1-8.8,20.92c-.24.35-.48.7-.74,1a50,50,0,0,1-10.65,10.79c-.66.5-1.32,1-2,1.43a53.34,53.34,0,0,1-13.75,6.6c31-9.82,45.2-43,33.25-82.38a94,94,0,0,1,4.15,23.93l-23.59.76L632.85,349.1l-11,20.08-21,38.35-72.75-55.63M729,360.84c-7.32,14.81-8.59,34.07-2.35,55.11-3.7-12.49-4.75-24.34-3.46-35a63.1,63.1,0,0,1,4-15.9q.85-2.15,1.86-4.19m.33-.65-.32.63.32-.63m.35-.68-.31.6.31-.6m.36-.67-.31.58.31-.58m.33-.6-.32.57.32-.57m.38-.66-.3.52.3-.52m.4-.67-.3.51.3-.51m.35-.58-.25.41.25-.41m.4-.63-.28.44.28-.44m.42-.65-.29.45.29-.45m.38-.57-.23.35.23-.35m.35-.5-.1.14.1-.14m.35-.49-.19.27.19-.27m.75-1-.66.89.66-.89M804,334.83a104.91,104.91,0,0,1,11,3.84,122.56,122.56,0,0,1,22.35,12.11,134.86,134.86,0,0,1,13.48,10.47,140.65,140.65,0,0,1,14.95,15.32,133.36,133.36,0,0,1,17.66,27.09C867.28,370.53,836.13,344,804,334.83m-.54-.15.37.1-.37-.1m-.55-.15.27.08-.27-.08m-.53-.14.22.06-.22-.06m-.53-.14.16,0-.16,0m-.52-.13.11,0-.11,0m-.51-.13.06,0-.06,0m-41.49.59a51.27,51.27,0,0,0-25.09,17.87,50.11,50.11,0,0,1,11.64-11.18,53.1,53.1,0,0,1,13.44-6.69m.47-.15-.42.14.42-.14m.47-.15-.38.12.38-.12m.51-.16-.39.12.39-.12m1.05-.31-1,.28,1-.28m.48-.13-.3.08.3-.08m.47-.13-.23.06.23-.06m.48-.13-.21.05.21-.05m.47-.12-.18,0,.18,0m.45-.11-.14,0,.14,0m.37-.09h0m26.83-1h0m-.53-.07h0m-24.9.71-.09,0,.09,0m24.36-.78h0m-23.88.68-.11,0,.11,0m.5-.1-.14,0,.14,0m.49-.09-.13,0,.13,0m.5-.09-.13,0,.13,0m.45-.08h0m18.81-.66h0m-.56,0h0m-16.86.49h0m16.3-.53h0M770.2,332l-.14,0,.14,0m15.24-.5h0m-14.72.43-.18,0,.18,0m14.17-.46h0m-13.64.39-.21,0,.21,0m13.08-.43h0m-12.54.36-.25,0,.25,0m12-.39h0m-11.42.33-.26,0,.26,0m10.86-.35h0m-10.32.3-.28,0,.28,0m9.51-.32h0m-8.74.25-.51,0,.51,0m8.17-.27h0m-7.63.22-.36,0,.36,0m7.08-.23h0m-6.54.19-.32,0,.32,0m6-.19h0m-5.45.16-.3,0,.3,0m4.9-.16h0m-4.34.12-.3,0,.3,0m3.78-.12h0m-3.23.09-.31,0,.31,0m2.67-.09h0m-2.08.06-.35,0,.35,0m1.5,0h0m-.74,0-.55,0,.55,0m0,0,.55,0-.55,0" transform="translate(-517.74 -312.08)"/><path class="cls-13" d="M773.38,419.29l16.42,46.54-33.21,1.07a140.61,140.61,0,0,0,14.6,13.53l.05,0,.67.53.16.13.46.36.24.19.5.39.38.3.14.11q2.81,2.14,5.7,4.12l.31.21,1.62,1.08a122.94,122.94,0,0,0,18,9.84c.65.29,1.3.57,2,.84a103.16,103.16,0,0,0,16,5.28l.08,0,.48.11.25.06.29.07.33.07.22,0,.36.08.17,0,.4.08.12,0a85.5,85.5,0,0,0,12.55,1.66h0l.52,0h0l.52,0h0l2.06.06h3.66l.55,0h.12l.43,0h.14l.41,0h.15l.41,0h.12l.43,0h.12l.45,0h.09l.47,0h.08q1.1-.1,2.18-.23h0l.49-.06h.07l.44-.06.13,0,.39-.06.14,0,.38-.06.15,0,.4-.06.11,0,.43-.07.09,0,1-.19h0l.48-.09.11,0,.38-.08.17,0,.32-.07.19,0,.32-.07.17,0,.34-.08.14,0,.35-.08.16,0,.35-.09.13,0,.42-.11.07,0,1-.26.11,0,.38-.11.09,0,.4-.12.08,0,.42-.13h0l.46-.14h0a53.34,53.34,0,0,0,13.75-6.6c.69-.45,1.36-.93,2-1.43a50,50,0,0,0,10.65-10.79c.25-.33.5-.68.74-1a57.27,57.27,0,0,0,8.8-20.92L859,463.6,843,418.1l-13.69,25L827.18,447,822,456.46l-11.68-8.93-4.77-3.65-32.17-24.59" transform="translate(-517.74 -312.08)"/><path class="cls-14" d="M777.72,331.38l-.55,0H777l-.35,0h-.24l-.31,0h-.25l-.3,0-.26,0-.3,0-.24,0-.32,0-.22,0-.36,0-.18,0-.51,0-.26,0-.28,0-.26,0-.26,0-.28,0-.25,0-.29,0-.21,0-.33,0-.18,0-.34,0-.14,0-.37.05h0l-1.34.21h-.08l-.37.07-.13,0-.36.07-.13,0-.36.07-.14,0-.36.07-.11,0-.37.08-.09,0-1.31.29h0l-.36.09-.14,0-.31.08-.18,0-.28.07-.21.05-.27.07-.23.06-.24.07-.3.08-.17,0-1,.28-.09,0-.39.12-.11,0-.38.12-.08,0-.42.14,0,0a53.1,53.1,0,0,0-13.44,6.69,50.11,50.11,0,0,0-11.64,11.18l0,0-.66.89-.09.13-.19.27-.16.22-.1.14-.15.22-.1.14-.23.35-.15.22-.29.45-.13.2-.28.44-.12.19-.25.41-.1.16-.3.51-.1.16-.3.52-.08.14-.32.57,0,0-.31.58-.05.1-.31.6,0,.08-.32.63v0q-1,2-1.86,4.19a63.1,63.1,0,0,0-4,15.9c-1.29,10.67-.24,22.53,3.46,35v0l.19.62,0,.05.19.64v0l.41,1.3,0,.15.16.48.07.21.14.42.08.23.15.43.07.21.22.63.18.52.06.17.13.35.07.2.12.33.07.19.12.33.08.21.14.38.14.37.09.23.11.29.09.22.12.31.07.17.14.35,0,.08a126.62,126.62,0,0,0,12.64,23.64l23.37-.75-26.12-74,72.75,55.63,21-38.35,11-20.08,25.92,73.49,23.59-.76a94,94,0,0,0-4.15-23.93l0-.05-.11-.37,0-.14-.11-.36,0-.13-.11-.36-.06-.17-.15-.46-.11-.35-.07-.21-.1-.31-.07-.21-.11-.33-.07-.2-.12-.34-.06-.18-.18-.52-.22-.63-.07-.19-.16-.43-.08-.23-.15-.4-.09-.23-.16-.44-.07-.18-.23-.59v0l-.25-.64-.05-.13-.2-.49-.08-.19-.18-.45-.08-.18-.19-.47-.07-.16-.25-.61h0l-.28-.65v0l-.26-.59-.06-.13-.22-.49-.07-.16L885,407l-.06-.13q-.43-1-.88-1.9l0,0-.28-.59,0,0-.3-.61v0a133.36,133.36,0,0,0-17.66-27.09,140.65,140.65,0,0,0-14.95-15.32,134.86,134.86,0,0,0-13.48-10.47A122.56,122.56,0,0,0,815,338.67a104.91,104.91,0,0,0-11-3.84l-.17,0-.37-.1-.28-.08-.27-.08-.31-.09-.22-.06-.37-.1-.16,0-.41-.11-.11,0-.44-.11-.06,0a90.88,90.88,0,0,0-9.44-1.84h0l-.5-.07h0l-.5-.06h0q-1.54-.2-3.07-.33h-.07l-.42,0h-.14l-.37,0H786l-.36,0h-.19l-.35,0h-.2l-.34,0h-.22l-.32,0h-.81l-.53,0h-4.4l-.55,0" transform="translate(-517.74 -312.08)"/></g><polygon class="cls-2" points="422.9 210.35 229.37 212.89 158.71 3.05 352.24 0.51 422.9 210.35"/></g><polygon class="cls-15" points="299.8 326.8 106.27 329.34 229.37 212.89 422.9 210.35 299.8 326.8"/><g class="cls-5"><g class="cls-16"><path class="cls-17" d="M856.52,580.95c-26,24.62-80.47,45.08-121.38,45.62s-53-19.05-27-43.67,80.46-45.07,121.37-45.61,53,19.05,27,43.66M701.7,583c-28.33,26.8-15.2,48,29.34,47.46S834.64,607.66,863,580.86s15.19-48-29.35-47.46S730,556.19,701.7,583" transform="translate(-517.74 -312.08)"/><path class="cls-8" d="M740.27,582.47l-2.79,28.23,57.67-29,2.79-28.23-57.66,29m-10.38,33.77a.67.67,0,0,1-.35-.64l3.18-32.07a1.67,1.67,0,0,1,.59-1,6.18,6.18,0,0,1,1.46-1l65.49-32.88a9.44,9.44,0,0,1,3.82-1c1.15,0,1.83.34,1.77.93l-3.17,32.07a1.69,1.69,0,0,1-.6,1,6.14,6.14,0,0,1-1.46,1L741,612.58l7.33-.1,61.59-30.92,3.07-31.1a1.71,1.71,0,0,1,.6-1,6.22,6.22,0,0,1,1.46-1,9.41,9.41,0,0,1,3.82-1l14.47-.19c1.15,0,1.83.34,1.77.93l-3.17,32.07a1.67,1.67,0,0,1-.59,1,6.19,6.19,0,0,1-1.47,1l-65.49,32.88c-1.86.94-4.18,1.28-5.15.77-.65-.34-.54-1,.17-1.66a6.18,6.18,0,0,1,1.46-1l63.53-31.9,3-30.15-7,.09-2.88,29.19a1.71,1.71,0,0,1-.6,1,6.22,6.22,0,0,1-1.46,1l-65.49,32.88a9.41,9.41,0,0,1-3.82,1l-14.78.19h-.22a2.59,2.59,0,0,1-1.12-.24h0l0,0h0M708.15,582.9c-26,24.62-13.92,44.2,27,43.67s95.35-21,121.38-45.62,13.91-44.2-27-43.66-95.36,21-121.37,45.61" transform="translate(-517.74 -312.08)"/><path class="cls-17" d="M731.32,616.53l14.78-.19a9.41,9.41,0,0,0,3.82-1l65.49-32.88a6.22,6.22,0,0,0,1.46-1,1.71,1.71,0,0,0,.6-1l2.88-29.19,7-.09-3,30.15-63.53,31.9a6.18,6.18,0,0,0-1.46,1c-.71.67-.82,1.32-.17,1.66,1,.52,3.29.17,5.15-.77l65.49-32.88a6.19,6.19,0,0,0,1.47-1,1.67,1.67,0,0,0,.59-1l3.17-32.07c.06-.59-.62-.95-1.77-.93l-14.47.19a9.41,9.41,0,0,0-3.82,1,6.22,6.22,0,0,0-1.46,1,1.71,1.71,0,0,0-.6,1l-3.07,31.1-61.59,30.92-7.33.1-5.87,2.95a9.41,9.41,0,0,1-3.82,1m-.1,0h0m-.1,0h0m-1.14-.24a2.59,2.59,0,0,0,1.12.24,2.61,2.61,0,0,1-1.12-.24m0,0,0,0,0,0m0,0h0" transform="translate(-517.74 -312.08)"/><path class="cls-17" d="M795.14,581.75l-57.67,29,2.79-28.23,57.66-29-2.79,28.23m-61.83.81a1.67,1.67,0,0,0-.59,1l-3.18,32.07a.67.67,0,0,0,.35.64h0l0,0h0a2.61,2.61,0,0,0,1.12.24h.22a9.41,9.41,0,0,0,3.82-1l5.87-2.95,59.62-29.94a6.14,6.14,0,0,0,1.46-1,1.69,1.69,0,0,0,.6-1l3.17-32.07c.06-.59-.62-.95-1.77-.93a9.44,9.44,0,0,0-3.82,1l-65.49,32.88a6.18,6.18,0,0,0-1.46,1" transform="translate(-517.74 -312.08)"/></g></g></g></g></svg>